<svg height="512pt" viewBox="-39 0 512 512" width="512pt" xmlns="http://www.w3.org/2000/svg" xmlns:xlink="http://www.w3.org/1999/xlink"><linearGradient id="a" gradientUnits="userSpaceOnUse" x1="0" x2="433.334" y1="256" y2="256"><stop offset="0" stop-color="#80d8ff"/><stop offset="1" stop-color="#ea80fc"/></linearGradient><path d="m427.476562 123.855469-118-118c-.066406-.066407-.140624-.121094-.207031-.183594-3.839843-3.738281-8.878906-5.671875-13.933593-5.671875h-275.335938c-11.046875 0-20 8.953125-20 20v472c0 11.046875 8.953125 20 20 20h393.335938c11.042968 0 20-8.953125 20-20v-354c0-5.421875-2.242188-10.527344-5.859376-14.144531zm-112.140624-55.570313 49.714843 49.714844h-49.714843zm-275.335938 403.714844v-432h235.335938v98c0 11.046875 8.953124 20 20 20h98v314zm149.335938-200-57.335938 43 57.335938 43c8.835937 6.628906 10.625 19.164062 4 28-6.660157 8.875-19.207032 10.597656-28 4l-78.667969-59c-10.648438-7.984375-10.671875-23.996094 0-32l78.667969-59c8.835937-6.628906 21.371093-4.835938 28 4 6.625 8.835938 4.835937 21.371094-4 28zm157.332031 59-78.667969 59c-8.875 6.65625-21.402344 4.792969-28-4-6.628906-8.835938-4.835938-21.371094 4-28l57.335938-43-57.335938-43c-8.835938-6.628906-10.628906-19.164062-4-28s19.164062-10.625 28-4l78.667969 59c10.644531 7.984375 10.671875 23.996094 0 32zm0 0" fill="url(#a)"/></svg>